<svg xmlns="http://www.w3.org/2000/svg" id="prefix__LOGO" width="162.546" height="28" viewBox="0 0 162.546 28">
    <defs>
        <style>
            .prefix__cls-1{fill:#00cbc3}
        </style>
    </defs>
    <path id="prefix__Path_10090" d="M1464.84 122.425a2 2 0 00-2-2h-8.583a1.392 1.392 0 00-1.392 1.392V137a1.392 1.392 0 001.392 1.392h8.583a2 2 0 002-2 2 2 0 00-2-2h-5.983v-3.19h3.987a2 2 0 002-2 2 2 0 00-2-2h-3.987v-2.782h5.983a2 2 0 002-1.995z" class="prefix__cls-1" data-name="Path 10090" transform="translate(-1302.293 -110.467)"/>
    <rect id="prefix__Rectangle_2435" width="3.992" height="17.96" class="prefix__cls-1" data-name="Rectangle 2435" rx="1.996" transform="translate(129.257 9.976)"/>
    <path id="prefix__Path_10091" d="M1325.831 122.293a2 2 0 00-2-2h-8.62a2 2 0 00-2 2 2 2 0 002 2h2.315v11.973a2 2 0 002 2 2 2 0 002-2v-11.978h2.315a2 2 0 002-2z" class="prefix__cls-1" data-name="Path 10091" transform="translate(-1177.686 -110.349)"/>
    <path id="prefix__Path_10092" d="M1107.973 131.919a5.987 5.987 0 00-2.339-11.493h-6.034a1.948 1.948 0 00-1.948 1.948v14.016a2 2 0 002 2 2 2 0 002-2v-3.99h1.169l3.715 5.068a2.247 2.247 0 001.812.919 2.247 2.247 0 001.795-3.6zm-.931-4.1a2 2 0 01-1.408.592h-3.991v-3.993h3.991a1.99 1.99 0 011.408 3.4z" class="prefix__cls-1" data-name="Path 10092" transform="translate(-985.34 -110.464)"/>
    <path id="prefix__Path_10093" d="M892.568 120.071a2.047 2.047 0 00-2.58 1.313l-2.608 8.016-2.609-8.014a2.043 2.043 0 00-1.516-1.366h-.009c-.056-.012-.113-.021-.17-.028l-.041-.006c-.043 0-.086-.006-.13-.008h-.167c-.042 0-.085 0-.127.008l-.044.006c-.056.007-.112.016-.167.028h-.012a2.044 2.044 0 00-1.514 1.365l-2.609 8.014-2.609-8.014a2.047 2.047 0 10-3.892 1.267l4.555 13.993.025.068.025.066c.019.048.04.094.063.139l.011.024c.029.057.061.112.094.165l.007.01c.031.048.064.094.1.139l.03.037c.028.035.057.069.088.1l.041.044c.029.03.06.059.091.087l.046.041c.044.038.09.074.137.108l.047.031c.035.024.071.047.107.068l.063.035q.053.029.109.055l.058.026c.057.024.114.047.172.066a2.041 2.041 0 00.317.076h.006c.05.008.1.014.152.018s.073 0 .109 0H878.424a2.04 2.04 0 00.474-.095c.058-.019.115-.041.171-.065l.059-.027c.036-.017.072-.035.107-.054l.064-.036c.036-.021.071-.044.105-.067l.049-.032c.047-.034.092-.07.136-.107l.047-.042c.03-.028.06-.056.089-.086l.042-.045q.045-.049.087-.1l.031-.038q.051-.067.1-.138l.008-.012q.051-.08.094-.165l.012-.025c.022-.045.043-.091.062-.139l.025-.066c.009-.022.018-.045.025-.068l2.613-8.026 2.613 8.026.025.068.025.066c.019.048.041.094.063.139 0 .008.007.016.011.024.029.057.061.112.094.165l.007.01c.031.048.064.094.1.139l.03.037c.028.035.057.069.088.1l.041.044q.044.045.091.087l.045.041c.044.038.09.074.137.108l.047.031c.035.024.071.047.107.068l.063.035q.053.029.109.055l.058.026c.057.024.114.047.172.066a2.042 2.042 0 00.317.076h.006c.05.008.1.014.152.018s.073 0 .109 0H887.541a2.041 2.041 0 00.474-.095c.058-.019.115-.041.171-.065l.059-.027q.054-.025.107-.054l.064-.036c.036-.021.071-.044.105-.067l.049-.032c.047-.034.092-.07.137-.107l.047-.042c.03-.028.06-.056.089-.086l.042-.045q.045-.049.087-.1l.031-.038q.051-.067.1-.138l.008-.012c.034-.053.065-.108.094-.165 0-.008.008-.017.012-.025.022-.045.043-.091.062-.139l.025-.066c.008-.022.018-.045.025-.068l4.555-13.993a2.046 2.046 0 00-1.316-2.573z" class="prefix__cls-1" data-name="Path 10093" transform="translate(-783.691 -110.057)"/>
    <g id="prefix__Group_2233" data-name="Group 2233">
        <path id="prefix__Path_10077" d="M218.777 122.425a2 2 0 00-2-2h-8.588a1.392 1.392 0 00-1.392 1.392V137a1.392 1.392 0 001.392 1.392h8.588a2 2 0 002-2 2 2 0 00-2-2h-5.99v-3.19h3.992a2 2 0 002-2 2 2 0 00-2-2h-3.992v-2.782h5.99a2 2 0 002-1.995z" class="prefix__cls-1" data-name="Path 10077" transform="translate(-190.449 -110.467)"/>
        <path id="prefix__Path_10078" d="M515.671 120.426h-6.393a1.392 1.392 0 00-1.392 1.392v15.175a1.392 1.392 0 001.392 1.392h6.393c4.4 0 7.982-4.028 7.982-8.98s-3.583-8.979-7.982-8.979zm0 13.969h-3.794v-9.977h3.794c2.163 0 3.989 2.286 3.989 4.989s-1.827 4.988-3.989 4.988z" class="prefix__cls-1" data-name="Path 10078" transform="translate(-459.102 -110.464)"/>
        <path id="prefix__Path_10079" d="M65.323 131.919a5.987 5.987 0 00-2.341-11.493h-6.59A1.392 1.392 0 0055 121.818v14.572a2 2 0 002 2 2 2 0 002-2v-3.99h1.167l3.719 5.069a2.247 2.247 0 001.811.918 2.247 2.247 0 001.795-3.6zm-.933-4.1a2 2 0 01-1.409.592H59v-3.993h3.991a1.966 1.966 0 011.409.589 1.972 1.972 0 010 2.812z" class="prefix__cls-1" data-name="Path 10079" transform="translate(-55 -110.464)"/>
        <path id="prefix__Path_10083" d="M686.193 52.113l-7.927-21.8a3.6 3.6 0 00-6.774 0l-7.925 21.778a2.8 2.8 0 002.631 3.757 2.8 2.8 0 002.8-2.8v-2.129a.554.554 0 01.94-.4l1.072 1.037a1.109 1.109 0 001.487.049l1.656-1.4a1.109 1.109 0 011.43 0l1.676 1.41a1.109 1.109 0 001.481-.048l1.114-1.068a.554.554 0 01.938.4v2.168a2.784 2.784 0 002.784 2.784 2.784 2.784 0 002.617-3.738zm-7.782-8.043a.732.732 0 01-.377.895 7.137 7.137 0 01-6.266 0 .732.732 0 01-.377-.894l2.939-8.7a.6.6 0 011.13 0z" class="prefix__cls-1" data-name="Path 10083" transform="translate(-597.86 -27.943)"/>
        <path id="prefix__Path_10084" d="M344.22 122.834l-4.012 12.692a1.989 1.989 0 001.882 2.633 1.989 1.989 0 001.882-1.345l.521-1.521h6.9l.522 1.522a1.991 1.991 0 001.883 1.344 1.991 1.991 0 001.883-2.635l-4.013-12.69a3.937 3.937 0 00-3.725-2.662 3.937 3.937 0 00-3.723 2.662zm1.6 8.389l1.692-5.605a.454.454 0 01.862 0l1.69 5.6z" class="prefix__cls-1" data-name="Path 10084" transform="translate(-309.389 -110.237)"/>
    </g>
</svg>
